<svg width="1" height="1" viewBox="0 0 1 1" fill="none" xmlns="http://www.w3.org/2000/svg">
<path d="M0.98472 0.54C0.98472 0.69464 0.920869 0.82 0.842105 0.82C0.763341 0.82 0.699491 0.69464 0.699491 0.54C0.699491 0.38536 0.763341 0.26 0.842105 0.26C0.920869 0.26 0.98472 0.38536 0.98472 0.54Z" fill="#FFB800"/>
<path d="M0.835314 0.648333C0.835314 0.662401 0.835086 0.676364 0.834636 0.69021C0.842044 0.687878 0.849643 0.686667 0.857385 0.686667C0.936149 0.686667 1 0.812027 1 0.966667C1 0.977946 0.99966 0.98907 0.999 1H0.000808985C0.000274254 0.990144 0 0.980135 0 0.97C0 0.81536 0.0638507 0.69 0.142615 0.69C0.154045 0.69 0.165161 0.69264 0.175813 0.697626C0.17519 0.681355 0.174873 0.664917 0.174873 0.648333C0.174873 0.290269 0.322718 0 0.505093 0C0.687469 0 0.835314 0.290269 0.835314 0.648333Z" fill="#D9D9D9"/>
</svg>
