<svg 
    id="e9vNa7kBhOZ1" 
    xmlns="http://www.w3.org/2000/svg" 
    xmlns:xlink="http://www.w3.org/1999/xlink" 
    viewBox="0 0 300 300" 
    shape-rendering="geometricPrecision" 
    text-rendering="geometricPrecision" 
    project-id="24dd653757bb41ee8e13296e538f5cf9" 
    export-id="3e402c9c7e694d2799a844b6e003c7fd" 
    cached="false"
>
    <g>
        <ellipse rx="42.390894" ry="42.390894" transform="translate(224.577581 53.200914)" fill="#ffb900" stroke-width="0"/>
        <g clip-path="url(#e9vNa7kBhOZ6)">
            <path d="M53.07943,125.66047c0-22.90834,17.77534-41.66502,40.28595-43.22996c6.86516-25.39577,30.06788-44.08042,57.63463-44.08042c27.88528,0,51.3051,19.11894,57.86604,44.96343c2.97943-.64755,6.07319-.98865,9.24662-.98865c23.93359,0,43.33561,19.40201,43.33561,43.33561c0,3.30198-.3693,6.5177-1.06885,9.60812v-1.53824h-206.54998c-.49243-2.61463-.75002-5.31217-.75002-8.06988v-.00001Z" 
            transform="matrix(1.384151 0 0 1.384151-67.676922-42.272296)"
            fill="#d2dbed" 
            stroke-width="0"/>
            <clipPath id="e9vNa7kBhOZ6">
                <path d="M53.07943,125.66047c0-22.90834,17.77534-41.66502,40.28595-43.22996c6.86516-25.39577,30.06788-44.08042,57.63463-44.08042c27.88528,0,51.3051,19.11894,57.86604,44.96343c2.97943-.64755,6.07319-.98865,9.24662-.98865c23.93359,0,43.33561,19.40201,43.33561,43.33561c0,3.30198-.3693,6.5177-1.06885,9.60812v-1.53824h-206.54998c-.49243-2.61463-.75002-5.31217-.75002-8.06988v-.00001Z" 
                      transform="matrix(1.384151 0 0 1.384151-67.676922-42.272296)" 
                      fill="#d2dbed" 
                      stroke-width="0"/>
            </clipPath>
        </g>
    </g>
</svg>
